P1
# CREATOR: GIMP PNM Filter Version 1.1
6 6
011110111111101101111111000000011110