P1
# CREATOR: GIMP PNM Filter Version 1.1
10 10
1100000011100000000100000000000000000000011000011001110011100010000100
100011000111000000111101001011