P1
# CREATOR: GIMP PNM Filter Version 1.1
10 12
0001111000001111110000101101001111111111111100111111110011110111111110
01111111100111111110011111111001111111100110110110