P1
# CREATOR: GIMP PNM Filter Version 1.1
11 11
0010000010000100000100000100010001101111101100111111100000111110000111
010111010011111001001000001000010000010001000000010