P1
# CREATOR: Infected with GIMP PNM Filter Version 1.1
64 16
1111111111111111111111111111111111111111111111111111111111111111111000
0000000000000000000000000000000000000000000000000000000111110000000000
0000000000000000000000000000000000000000000000000011100100001000010001
1110100111101000110100111101001111010011110001101100011000110011111110
1111111001111101010111011111110110111001101110111000110111001101110011
0010011110010011111001101110011101101100011100110011000000110000011000
0000010000011000000110001101101100011100110011000000110000011000000001
0000011000000110001101101100011010110011110000111100011000000001000001
1110000110001101101100011001110011000000110000011000000001000001100000
0110001001101100011000110011000000110000011100010001000101100000011001
0001101110111100111011100000111001001110100001101001110010011010000110
1100011000110011000000011110000111000001110000111100011100000111000000
0000000000000000000000000000000000000000000000000000001111100000000000
0000000000000000000000000000000000000000000000011111111111111111111111
11111111111111111111111111111111111111111111
