P1
# CREATOR: GIMP PNM Filter Version 1.1
64 16
1111100000000000000000000000000000000000000000000000000000011111111100
0000000000000000000000000000000000000000000000000000001111111000000000
0000000000000000000000000000000000000110000000000111110000000000000000
0000000001100000000000000000000110000000000011100000000000000000000000
0001100000000000000000000000000000000001000011101101100011110000111111
1100111101110000111100001110111100000001111111100110011000001100000000
1110011000001100000110011000000001101101100000011000011000000001100000
0000011000000111110000000011011011001111110000011000000001100000000001
1000000011000000000011011011011000110000110000000011000000000011000000
1111100000000110110110110001100000110001100011000000000011000001100110
0000101110110111011111110000011111001111111000011111111011110111000111
0000000000000000000000000000000000000000000000000000000000001111100000
0000000000000000000000000000000000000000000000000000011111110000000000
0000000000000000000000000000000000000000000000111111111000000000000000
00000000000000000000000000000000000000011111