P1
# CREATOR: GIMP PNM Filter Version 1.1
16 16
0000011111100000000111000011100000110000000011000110000110000110010000
1001000010110001000010001110000100000000011000010000000001100001000000
0001100001000000000111000100001000110100001001000010011000011000011000
1100000000110000011100001110000000011111100000