P1
# CREATOR: GIMP PNM Filter Version 1.1
64 16
1111111111111111111111111111111111111111111111111111111111111111100000
0000000000000000000000000000000000000000000000000000000001100000000000
0000000000000000000000000000000000000000000000000001100000000000000000
0000000000000000000000000000000000000000000001100000000000000000000000
0000000000000000000000000000000000000001100000000000000000000000000000
0000000000000000000000000000000001100000000000000000000000000000000000
0000000000000000000000000001100000000000000000000000000000000000000000
0000000000000000000001100000000000000000000000000000000000000000000000
0000000000000001100000000000000000000000000000000000000000000000000000
0000000001100000000000000000000000000000000000000000000000000000000000
0001100000000000000000000000000000000000000000000000000000000000000110
0000000000000000000000000000000000000000000000000000000000000110000000
0000000000000000000000000000000000000000000000000000000110000000000000
0000000000000000000000000000000000000000000000000111111111111111111111
11111111111111111111111111111111111111111111