P1
# CREATOR: GIMP PNM Filter Version 1.1
64 16
1111111111111111111111111111111111111111111111111111111111111111100000
0000000000000000000000000000000000000000000000000000000001100100000010
0000000000000000000000000000000000000000010000001001101011001101000000
0000000000000000000000000000000000101100110101101011111101000000000000
0000000000000000000000000000101111110101100111111110000000000000000000
0000000000000000000000011111111001100011111100000000000000000000000000
0000000000000000001111110001100001111000000000000000000000000000000000
0000000000000111100001100000110000000000000000000000000000000000000000
0000000011000001100000110000000000000000000000000000000000000000000000
0011000001100000110000000000000000000000000000000000000000000000001100
0001100001111000000000000000000000000000000000000000000000011110000110
0011111100000000000000000000000000000000000000000000111111000110001111
1100000000000000000000000000000000000000000000111111000110000000000000
0000000000000000000000000000000000000000000000000111111111111111111111
11111111111111111111111111111111111111111111