P1
# CREATOR: GIMP PNM Filter Version 1.1
64 16
1000100010001000100010001000100010001000100010001000100010001000000000
0000000000000000000000000000000000000000000000000000000001000000000000
0000000000000000000000100000000000000000000011100000000000000000000000
0000000000000000100000000000000000000100010000100000000000000000000000
0000000000100000000000000000001000000000000000000000000000000000000000
0000100000000000000000001001100001000001111000001011110000011110000010
0000100001111100000110010000000010000100001100011000100001000010001100
0010000110000000001000100010000000001000001000000000100010011000010000
0010000011001000000001100000001000001000000111100010110000011111111000
0100110001000000011100001000001000111000100011001000010000000000100000
0000000000000010001000001001100000100010000100011000000000100001100010
0110000010001000001001100001100010000110001000001000010010110000000111
1100001000001000111110100010000010000111110000001101100100000000000000
0000000000000000000000000000000000000000000000000001000100010001000100
01000100010001000100010001000100010001000100